<svg xmlns="http://www.w3.org/2000/svg" width="430" height="430" fill="none" viewBox="0 0 430 430"><path fill="#f24c00" d="M50 80c30-15 300-15 330 0s30 255 0 270-300 15-330 0S20 95 50 80"/><path fill="#f24c00" d="M237.5 68.863C155.643 68.036 66.504 71.748 50 80c-30 15-30 255 0 270 16.504 8.252 105.645 11.964 187.501 11.137C170.564 360.46 108.496 356.748 95 350 65 335 65 95 95 80c13.496-6.748 75.563-10.46 142.5-11.137" opacity=".6" style="mix-blend-mode:multiply"/><path fill="#ebe6ef" d="m287 215-115 77V138z"/><path fill="#ebe6ef" d="M202 271.913V158.087L172 138v154z" opacity=".5" style="mix-blend-mode:multiply"/><path stroke="#121331" stroke-linejoin="round" stroke-width="7" d="M50 80c30-15 300-15 330 0s30 255 0 270-300 15-330 0S20 95 50 80Z"/><path stroke="#121331" stroke-linejoin="round" stroke-width="7" d="m287 215-115 77V138z"/></svg>